Coordinates
version=1
nRows=32
nColumns=33
inDegrees=yes

Units are S.I. units (second, meters, Newtons, ...)
Angles are in degrees.

endheader
time	ground_thorax_rot_x	ground_thorax_rot_y	ground_thorax_rot_z	ground_thorax_tx	ground_thorax_ty	ground_thorax_tz	clav_prot_r	clav_elev_r	scapula_abduction_r	scapula_elevation_r	scapula_upward_rot_r	scapula_winging_r	shoulder_elv_r	plane_of_elev_r	axial_rot_r	elbow_flexion_r	pro_sup_r	wrist_flex_r	wrist_dev_r	clav_prot_l	clav_elev_l	scapula_abduction_l	scapula_elevation_l	scapula_upward_rot_l	scapula_winging_l	shoulder_elv_l	plane_of_elev_l	axial_rot_l	elbow_flexion_l	pro_sup_l	wrist_flex_l	wrist_dev_l	
0.8300	13.690751	46.226237	12.477421	-0.007577	1.024931	-0.049341	-35.460076	28.185446	-42.078530	17.429088	45.000000	-20.979530	12.344792	-30.209363	54.587607	106.896876	35.468579	20.020179	-16.000374	26.279166	-37.856702	-45.000000	8.545975	-45.000000	3.671279	79.129615	10.989367	-16.341218	104.072565	42.224495	14.861280	-22.043144	
0.8400	13.615724	46.317593	12.485350	-0.007845	1.025049	-0.049396	-35.379437	28.272551	-42.061605	17.507924	45.000000	-20.907064	12.364938	-30.088377	54.440177	107.700100	35.985784	19.922482	-16.217853	26.297314	-37.928568	-45.000000	8.609565	-45.000000	3.606935	79.628024	11.067390	-15.923215	104.560444	42.123155	14.788149	-22.076176	
0.8500	13.537241	46.412512	12.494419	-0.008144	1.025201	-0.049442	-35.286957	28.367988	-42.037666	17.595083	45.000000	-20.824434	12.380034	-29.945216	54.271159	108.517567	36.611858	19.780365	-16.466717	26.322523	-38.028308	-45.000000	8.697800	-45.000000	3.517619	80.161140	11.118746	-15.465875	105.056023	42.021731	14.707685	-22.107680	
0.8600	13.454191	46.509249	12.499953	-0.008461	1.025369	-0.049494	-35.183450	28.474562	-42.011239	17.692581	45.000000	-20.731720	12.384116	-29.774439	54.074356	109.345553	37.311565	19.604404	-16.746168	26.351579	-38.143212	-45.000000	8.799467	-45.000000	3.414684	80.729181	11.168993	-14.976030	105.554256	41.922269	14.616029	-22.138762	
0.8700	13.347288	46.601405	12.527251	-0.008796	1.025543	-0.049567	-35.071822	28.592336	-41.986729	17.800076	45.000000	-20.631369	12.379178	-29.570199	53.877601	110.167229	37.954193	19.449097	-17.034466	26.376701	-38.242593	-45.000000	8.887388	-45.000000	3.325702	81.292102	11.259327	-14.468431	106.038603	41.825467	14.506919	-22.170374	
0.8800	13.219411	46.686579	12.574539	-0.009140	1.025721	-0.049665	-34.950054	28.724259	-41.964998	17.920200	45.000000	-20.521149	12.363218	-29.330853	53.674016	110.981991	38.538885	19.311801	-17.336556	26.397682	-38.325613	-45.000000	8.960872	-45.000000	3.251364	81.852665	11.390333	-13.943331	106.509987	41.726423	14.385825	-22.204140	
0.8900	13.065285	46.761124	12.647877	-0.009501	1.025886	-0.049794	-34.812450	28.878371	-41.947820	18.060156	45.000000	-20.395757	12.327396	-29.047468	53.462732	111.777488	39.005230	19.210692	-17.655525	26.411184	-38.379090	-45.000000	9.008224	-45.000000	3.203471	82.399129	11.585489	-13.400667	106.952479	41.618430	14.257552	-22.239456	
0.9000	12.889486	46.822011	12.752375	-0.009884	1.026046	-0.049951	-34.653008	29.058941	-41.932033	18.224299	45.000000	-20.249872	12.275008	-28.719918	53.237493	112.553427	39.392293	19.130919	-17.994962	26.419379	-38.411658	-45.000000	9.037144	-45.000000	3.174131	82.928402	11.825655	-12.831940	107.367664	41.486846	14.139923	-22.277857	
0.9100	12.706095	46.857467	12.892520	-0.010315	1.026193	-0.050103	-34.445590	29.292003	-41.912223	18.437082	45.000000	-20.059760	12.192519	-28.327636	52.965635	113.301617	39.781907	19.033832	-18.383617	26.425265	-38.434981	-45.000000	9.057956	-45.000000	3.152749	83.432531	12.084006	-12.214458	107.754916	41.301093	14.061128	-22.321931	
0.9200	12.521154	46.877132	13.069056	-0.010787	1.026354	-0.050241	-34.193799	29.570138	-41.885472	18.692392	45.000000	-19.828886	12.095751	-27.891764	52.641694	114.038019	40.265286	18.889871	-18.809131	26.435324	-38.474631	-45.000000	9.093351	-45.000000	3.116322	83.925489	12.320779	-11.531986	108.120928	41.021579	14.079787	-22.377251	
0.9300	12.339804	46.875350	13.273949	-0.011312	1.026505	-0.050336	-33.884165	29.906472	-41.850185	19.002980	45.000000	-19.544797	11.964853	-27.399644	52.232351	114.757828	40.878186	18.679075	-19.271536	26.450425	-38.533733	-45.000000	9.146102	-45.000000	3.061974	84.420822	12.540592	-10.730422	108.449165	40.538284	14.323612	-22.461373	
0.9400	12.141118	46.868848	13.524591	-0.011873	1.026681	-0.050419	-33.551287	30.262466	-41.810271	19.333778	45.000000	-19.239411	11.837678	-26.890091	51.789755	115.471425	41.536081	18.452712	-19.706402	26.469815	-38.609420	-45.000000	9.213719	-45.000000	2.992314	84.904904	12.754232	-9.801928	108.727558	39.788534	14.887901	-22.590650	
0.9500	11.940355	46.851987	13.805417	-0.012466	1.026854	-0.050428	-33.171228	30.664018	-41.766138	19.709450	45.000000	-18.890318	11.683121	-26.344855	51.263625	116.177498	42.315686	18.175840	-20.115460	26.501307	-38.731722	-45.000000	9.323080	-45.000000	2.879531	85.404596	12.954604	-8.516283	108.907340	38.307064	16.339829	-22.868304	
0.9600	11.715706	46.845066	14.126833	-0.013066	1.027072	-0.050420	-32.791789	31.059578	-41.723072	20.082295	45.000000	-18.541625	11.552413	-25.805586	50.738551	116.885416	43.084161	17.917022	-20.450280	26.541664	-38.888162	-45.000000	9.463114	-45.000000	2.735015	85.907100	13.156626	-6.968132	109.000218	36.255162	18.507176	-23.270271	
0.9700	11.486408	46.834854	14.443300	-0.013659	1.027289	-0.050390	-32.403774	31.460825	-41.683138	20.463023	45.000000	-18.184489	11.415933	-25.235581	50.185442	117.589482	43.844338	17.656766	-20.750652	26.587895	-39.067100	-45.000000	9.623360	-45.000000	2.569578	86.455956	13.379631	-5.206695	109.022781	33.778363	21.208129	-23.767954	
0.9800	11.236975	46.829215	14.764704	-0.014247	1.027550	-0.050423	-32.050669	31.821053	-41.649515	20.807855	45.000000	-17.859308	11.329938	-24.653714	49.694582	118.286999	44.451712	17.461092	-21.004533	26.630024	-39.230073	-45.000000	9.769404	-45.000000	2.418709	87.015687	13.635459	-3.543579	109.039072	31.522616	23.671684	-24.229156	
0.9900	11.008027	46.794418	15.054205	-0.014846	1.027775	-0.050464	-31.680119	32.204366	-41.632362	21.176135	45.000000	-17.515781	11.243394	-23.971173	49.181849	118.959669	44.993768	17.275201	-21.265252	26.666976	-39.372900	-45.000000	9.897439	-45.000000	2.286487	87.604731	13.918887	-1.974108	109.067054	29.569027	25.792914	-24.636732	
1.0000	10.777543	46.744682	15.335048	-0.015458	1.028002	-0.050564	-31.323749	32.582548	-41.642712	21.540458	45.000000	-17.182088	11.192042	-23.213094	48.704701	119.608358	45.389867	17.140084	-21.515003	26.692000	-39.469459	-45.000000	9.984117	-45.000000	2.196987	88.193702	14.227667	-0.743435	109.158686	28.409006	26.984380	-24.886294	
1.0100	10.574878	46.657981	15.586740	-0.016096	1.028173	-0.050670	-30.939406	33.009834	-41.697494	21.951471	45.000000	-16.816638	11.138549	-22.311511	48.184335	120.223784	45.736533	17.006042	-21.764816	26.707603	-39.529437	-45.000000	10.038097	-45.000000	2.141371	88.796094	14.547151	0.233539	109.310501	27.932018	27.379987	-25.000000	
1.0200	10.367186	46.561693	15.849136	-0.016753	1.028346	-0.050799	-30.557846	33.454012	-41.798633	22.378226	45.000000	-16.448096	11.110198	-21.330654	47.665090	120.816701	46.031195	16.887171	-21.987442	26.717572	-39.567433	-45.000000	10.072477	-44.999999	2.106051	89.392664	14.856188	0.969435	109.510097	28.055650	27.078284	-25.000000	
1.0300	10.188879	46.437563	16.102072	-0.017436	1.028481	-0.050883	-30.135906	33.966404	-41.959589	22.869567	45.000000	-16.034344	11.079530	-20.210623	47.074332	121.383889	46.393269	16.728403	-22.186736	26.730577	-39.617056	-45.000000	10.117342	-44.999999	2.059822	89.996568	15.133163	1.716594	109.707311	28.304599	26.635441	-25.000000	
1.0400	9.989325	46.319430	16.380655	-0.018109	1.028643	-0.050969	-29.727693	34.483864	-42.171031	23.365355	45.000000	-15.627211	11.076103	-19.046855	46.492683	121.941484	46.767076	16.562852	-22.349808	26.745310	-39.673222	-45.000000	10.168137	-44.999998	2.007297	90.606847	15.382662	2.404083	109.896538	28.750979	25.954675	-25.000000	
1.0500	9.803587	46.184557	16.651822	-0.018785	1.028801	-0.051059	-29.316006	35.027236	-42.446061	23.886293	45.000000	-15.208927	11.105735	-17.772213	45.898124	122.481238	47.161506	16.379478	-22.490432	26.758632	-39.723888	-45.000000	10.213977	-44.999997	1.959773	91.224993	15.585265	2.926748	110.091322	29.625916	24.623511	-25.000000	
1.0600	9.589997	46.052496	16.939356	-0.019453	1.028981	-0.051184	-28.942160	35.556211	-42.789525	24.392143	45.000000	-14.817725	11.177551	-16.433010	45.344726	123.001067	47.534254	16.202519	-22.607632	26.765630	-39.750305	-45.000000	10.237888	-44.999995	1.935031	91.853291	15.783331	3.248755	110.284820	31.121137	22.580405	-25.000000	
1.0700	9.382075	45.895567	17.211362	-0.020133	1.029156	-0.051321	-28.584290	36.089123	-43.191581	24.900996	45.000000	-14.434282	11.284960	-14.976233	44.801509	123.488524	47.890894	16.024296	-22.717268	26.764992	-39.747283	-45.000000	10.235188	-44.999991	1.937988	92.495571	15.987364	3.414766	110.464073	33.149118	19.887227	-25.000000	
1.0800	9.138600	45.735500	17.492407	-0.020799	1.029360	-0.051477	-28.273074	36.586062	-43.632053	25.374193	45.000000	-14.090236	11.422629	-13.480121	44.301914	123.949359	48.184277	15.874575	-22.815307	26.755588	-39.710906	-45.000000	10.202327	-44.999983	1.972492	93.162697	16.249029	3.540644	110.594772	35.435830	16.990710	-25.000000	
1.0900	8.879234	45.566241	17.778329	-0.021462	1.029614	-0.051641	-27.984154	37.046947	-44.060650	25.815735	45.000000	-13.769188	11.595281	-11.981107	43.814545	124.388858	48.416634	15.756545	-22.905121	26.742105	-39.658975	-45.000000	10.155392	-44.999970	2.021728	93.840015	16.539656	3.692116	110.667199	37.637802	14.133496	-25.000000	
1.1000	8.581752	45.392207	18.083272	-0.022122	1.029918	-0.051804	-27.712467	37.455287	-44.438912	26.213717	45.000000	-13.471674	11.790271	-10.539353	43.319978	124.810432	48.568293	15.681794	-22.985464	26.723811	-39.589014	-45.000000	10.092161	-44.999946	2.088035	94.537774	16.898176	4.007683	110.661469	39.508459	11.755532	-25.000000	
1.1100	8.259943	45.205613	18.407963	-0.022789	1.030277	-0.051953	-27.421056	37.817366	-44.712566	26.581142	45.000000	-13.170012	12.007572	-9.198021	42.766569	125.222773	48.647260	15.649572	-23.058182	26.704700	-39.515951	-45.000000	10.026151	-44.999904	2.156997	95.248855	17.285442	4.516559	110.581807	40.815665	9.970921	-25.000000	
1.1200	7.912435	45.003563	18.754946	-0.023463	1.030663	-0.052077	-27.097707	38.146405	-44.886502	26.931719	45.000000	-12.852485	12.238489	-7.951063	42.128760	125.624455	48.664214	15.657998	-23.118620	26.683770	-39.436117	-45.000000	9.954127	-44.999828	2.232026	95.981577	17.699189	5.222198	110.438576	41.617958	8.751995	-25.000000	
1.1300	7.542580	44.792721	19.133876	-0.024145	1.031086	-0.052191	-26.742647	38.448929	-44.966261	27.270091	45.000000	-12.518266	12.490656	-6.804389	41.407422	126.016389	48.643885	15.696780	-23.166302	26.663875	-39.359959	-45.000000	9.885537	-44.999692	2.303235	96.724902	18.086830	6.004134	110.267469	42.100441	7.787583	-25.000000	
1.1400	7.167219	44.555193	19.522667	-0.024855	1.031496	-0.052292	-26.358555	38.746579	-44.998987	27.613646	45.000000	-12.164114	12.767988	-5.669150	40.595882	126.379077	48.605545	15.753636	-23.196209	26.641504	-39.274065	-45.000000	9.808341	-44.999448	2.383365	97.494312	18.473748	6.860484	110.077095	42.494242	6.964476	-25.000000	
